<svg height="512pt" viewBox="-25 0 512 512" width="512pt" xmlns="http://www.w3.org/2000/svg"><path d="m446.261719 180.582031h-38.695313v-100.316406c0-8.285156-6.714844-15-15-15h-123.308594c-8.285156 0-15 6.714844-15 15v100.316406h-65.5c0-.085937.011719-.167969.011719-.25 0-8.285156-6.714843-15-15-15h-23.542969v-33.746093h51.527344c4.738282 0 9.199219-2.238282 12.027344-6.035157 2.832031-3.800781 3.703125-8.714843 2.347656-13.253906l-30.324218-101.585937c-1.898438-6.355469-7.742188-10.710938-14.375-10.710938h-72.410157c-6.632812 0-12.476562 4.355469-14.375 10.710938l-30.324219 101.585937c-1.351562 4.539063-.484374 9.453125 2.347657 13.253906 2.828125 3.796875 7.289062 6.035157 12.027343 6.035157h51.53125v33.746093h-23.546874c-8.28125 0-15 6.714844-15 15 0 .085938.011718.164063.015624.25h-66.695312c-8.285156 0-15 6.714844-15 15v59.746094c0 8.285156 6.714844 15 15 15h4.941406v226.671875c0 8.285156 6.71875 15 15 15h391.378906c8.28125 0 15-6.714844 15-15v-226.671875h4.941407c8.285156 0 15-6.714844 15-15v-59.746094c0-8.285156-6.714844-15-15-15zm-396.320313 210.582031h361.378906v90.835938h-361.378906zm361.378906-30h-361.378906v-90.835937h361.378906zm-127.0625-265.898437h93.308594v81.667969h-93.308594zm147.003907 145.0625h-401.261719v-29.746094h401.261719zm-271.007813-210.328125 21.367188 71.585938h-92.792969l21.367187-71.585938zm0 0"/><path d="m220.789062 330.746094h19.683594c8.285156 0 15-6.714844 15-15 0-8.28125-6.714844-15-15-15h-19.683594c-8.285156 0-15 6.71875-15 15 0 8.285156 6.714844 15 15 15zm0 0"/><path d="m240.472656 421.582031h-19.683594c-8.285156 0-15 6.714844-15 15 0 8.285157 6.714844 15 15 15h19.683594c8.285156 0 15-6.714843 15-15 0-8.285156-6.714844-15-15-15zm0 0"/></svg>