<?xml version="1.0" encoding="iso-8859-1"?>
<!-- Generator: Adobe Illustrator 19.0.0, SVG Export Plug-In . SVG Version: 6.00 Build 0)  -->
<svg version="1.1" id="Capa_1" xmlns="http://www.w3.org/2000/svg" xmlns:xlink="http://www.w3.org/1999/xlink" x="0px" y="0px"
	 viewBox="0 0 508 508" style="enable-background:new 0 0 508 508;" xml:space="preserve">
<g>
	<g>
		<path d="M433.5,0h-359c-7.8,0-14.1,6.3-14.1,14.1v461.1c0,7.8,6.3,14.1,14.1,14.1h27.2v4.6c0,7.8,6.3,14.1,14.1,14.1
			s14.1-6.3,14.1-14.1v-4.6h248.2v4.6c0,7.8,6.3,14.1,14.1,14.1c7.8,0,14.1-6.3,14.1-14.1v-4.6h27.2c7.8,0,14.1-6.3,14.1-14.1V14.1
			C447.6,6.3,441.3,0,433.5,0z M419.4,461.1H88.6V335.6h330.8V461.1z M419.4,307.4H88.6V181.9h330.8V307.4z M419.4,153.7H88.6V28.2
			h330.8V153.7z"/>
	</g>
</g>
<g>
	<g>
		<path d="M267.9,384.3h-27.8c-7.8,0-14.1,6.3-14.1,14.1c0,7.7,6.3,14.1,14.1,14.1h27.8c7.8,0,14.1-6.3,14.1-14.1
			C282,390.6,275.7,384.3,267.9,384.3z"/>
	</g>
</g>
<g>
	<g>
		<path d="M267.9,230.6h-27.8c-7.8,0-14.1,6.3-14.1,14.1c0,7.7,6.3,14.1,14.1,14.1h27.8c7.8,0,14.1-6.3,14.1-14.1
			C282,236.9,275.7,230.6,267.9,230.6z"/>
	</g>
</g>
<g>
	<g>
		<path d="M267.9,76.9h-27.8c-7.8,0-14.1,6.3-14.1,14.1s6.3,14.1,14.1,14.1h27.8c7.8,0,14.1-6.3,14.1-14.1S275.7,76.9,267.9,76.9z"
			/>
	</g>
</g>
<g>
</g>
<g>
</g>
<g>
</g>
<g>
</g>
<g>
</g>
<g>
</g>
<g>
</g>
<g>
</g>
<g>
</g>
<g>
</g>
<g>
</g>
<g>
</g>
<g>
</g>
<g>
</g>
<g>
</g>
</svg>
