<svg width="28" height="28" viewBox="0 0 28 28" fill="none" xmlns="http://www.w3.org/2000/svg"><path fill-rule="evenodd" clip-rule="evenodd" d="M24.3002 17.8694C24.7525 16.6657 25 15.3618 25 14C25 13.8295 24.9961 13.66 24.9885 13.4914C25.4272 13.8159 25.7632 14.2855 25.9154 14.8536C26.2589 16.1356 25.5409 17.4519 24.3002 17.8694ZM3.01154 13.4916C3.00387 13.6601 3 13.8296 3 14C3 15.3617 3.24742 16.6656 3.69974 17.8691C2.93532 17.6099 2.3104 16.9859 2.08581 16.1477C1.81237 15.1272 2.21153 14.085 3.01154 13.4916Z" fill="#1A1A1A"/><path fill-rule="evenodd" clip-rule="evenodd" d="M18.5852 18.0932C18.9242 18.5291 18.8456 19.1574 18.4096 19.4964C17.1613 20.4671 15.6276 20.9987 14.0463 21.0089C12.465 21.019 10.9246 20.5071 9.66392 19.5526C9.22361 19.2192 9.13694 18.592 9.47033 18.1517C9.80372 17.7114 10.4309 17.6247 10.8712 17.9581C11.7809 18.6469 12.8924 19.0162 14.0335 19.0089C15.1745 19.0016 16.2812 18.618 17.1819 17.9176C17.6179 17.5786 18.2462 17.6572 18.5852 18.0932Z" fill="#1A1A1A"/><path d="M20 14.5C20 15.3284 19.3284 16 18.5 16C17.6716 16 17 15.3284 17 14.5C17 13.6716 17.6716 13 18.5 13C19.3284 13 20 13.6716 20 14.5Z" fill="#1A1A1A"/><path d="M11 14.5C11 15.3284 10.3284 16 9.5 16C8.67157 16 8 15.3284 8 14.5C8 13.6716 8.67157 13 9.5 13C10.3284 13 11 13.6716 11 14.5Z" fill="#1A1A1A"/><path fill-rule="evenodd" clip-rule="evenodd" d="M23 14C23 18.9706 18.9706 23 14 23C9.02944 23 5 18.9706 5 14C5 13.1071 5.13002 12.2446 5.37216 11.4304C4.59806 11.2701 3.99309 10.9924 3.52324 10.6381C3.18346 11.6978 3 12.8275 3 14C3 20.0751 7.92487 25 14 25C20.0751 25 25 20.0751 25 14C25 11.4788 24.1518 9.15572 22.7252 7.30053C24.0759 9.56426 24 12 24 12L22.4203 10.8152C22.7949 11.8053 23 12.8787 23 14ZM5.98442 6.46666C6.15409 6.48827 6.32622 6.5 6.5 6.5C6.80737 6.5 7.25833 6.21431 7.88194 5.81926C9.27913 4.93413 11.543 3.5 15 3.5C16.5013 3.5 17.7523 3.72318 18.7948 4.09721C17.3456 3.39423 15.7188 3 14 3C10.8398 3 7.9908 4.33266 5.98442 6.46666Z" fill="#1A1A1A"/><path fill-rule="evenodd" clip-rule="evenodd" d="M8.76978 4.12203C10.2439 3.31828 12.2852 2.5 15 2.5C17.474 2.5 19.384 3.06929 20.8439 3.97956C22.3021 4.88874 23.251 6.10049 23.8637 7.29297C24.4733 8.47925 24.7546 9.65372 24.8855 10.523C24.9512 10.9601 24.98 11.3266 24.9922 11.5881C24.9983 11.7191 25.0003 11.8242 25.0007 11.8994C25.0009 11.9369 25.0007 11.9671 25.0004 11.9892L24.9999 12.0163L24.9997 12.0253L24.9996 12.0286L24.9995 12.03C24.9995 12.0306 24.9995 12.0311 24 12L24.9995 12.0311L24.9396 13.9547L19.8485 10.1364C19.6917 10.1963 19.5029 10.2666 19.2846 10.3449C18.5883 10.5947 17.5901 10.9259 16.3708 11.2568C13.9379 11.9169 10.5967 12.5833 7.00396 12.5833C5.10054 12.5833 3.68657 12.1051 2.69628 11.2556C1.70778 10.4077 1.26497 9.29587 1.09434 8.26981C0.925024 7.25164 1.01252 6.26233 1.13134 5.55034C1.19157 5.18944 1.26192 4.88775 1.31806 4.67354C1.34619 4.56619 1.37093 4.48013 1.38933 4.41883C1.39854 4.38816 1.40617 4.36363 1.41187 4.34567L1.41893 4.3237L1.42129 4.31649L1.42216 4.31385L1.42252 4.31277C1.42268 4.3123 1.42282 4.31186 2.37147 4.6282L1.42252 4.31277L1.92545 2.80459L3.06562 3.90837C3.06575 3.90849 3.06544 3.9082 3.06562 3.90837L3.07582 3.91796C3.0858 3.92727 3.10264 3.9428 3.12593 3.96366C3.17259 4.00544 3.24475 4.06826 3.3392 4.14515C3.529 4.29966 3.80378 4.50684 4.13804 4.71326C4.81105 5.12889 5.63219 5.48362 6.44368 5.49945C6.45963 5.49341 6.48431 5.48329 6.51879 5.46699C6.6369 5.41117 6.79463 5.3202 7.01767 5.18171C7.11248 5.12283 7.21682 5.05671 7.32982 4.98511C7.71913 4.73841 8.21111 4.42665 8.76978 4.12203ZM3.03634 6.38332C2.98704 6.86935 2.97937 7.41329 3.06725 7.94173C3.18577 8.65445 3.46659 9.28139 3.99841 9.73757C4.52845 10.1922 5.43148 10.5833 7.00396 10.5833C10.3631 10.5833 13.5198 9.95807 15.847 9.32657C17.0078 9.01159 17.9551 8.69701 18.6094 8.46236C18.9363 8.34508 19.1897 8.24794 19.3594 8.18092C19.4442 8.14741 19.5081 8.12145 19.5498 8.10429L19.5955 8.0853L19.6056 8.08106L19.607 8.08047L20.138 7.85351L22.6845 9.76337C22.549 9.26926 22.3568 8.73627 22.0848 8.20703C21.6057 7.27451 20.8837 6.36126 19.7857 5.67669C18.6896 4.99321 17.1584 4.5 15 4.5C12.7148 4.5 11.0041 5.18172 9.72722 5.87797C9.23231 6.14782 8.81697 6.41088 8.43446 6.65314C8.31098 6.73135 8.19092 6.80739 8.07271 6.88079C7.84281 7.02355 7.60244 7.16695 7.37344 7.27519C7.16112 7.37554 6.84997 7.5 6.49999 7.5C5.13472 7.5 3.91409 6.9256 3.08717 6.41494C3.0701 6.40439 3.05316 6.39385 3.03634 6.38332Z" fill="#1A1A1A"/></svg>