<svg height="25px" viewBox="-20 -30 532 512" width="25px" xmlns="http://www.w3.org/2000/svg"><path d="m496.722656 0h-481.445312c-8.4375 0-15.277344 6.839844-15.277344 15.277344v410.523437c0 8.4375 6.839844 15.277344 15.277344 15.277344h481.445312c8.4375 0 15.277344-6.839844 15.277344-15.277344v-410.523437c0-8.4375-6.839844-15.277344-15.277344-15.277344zm-466.164062 30.558594h129.921875v379.960937h-129.921875zm160.480468 0h129.925782v379.960937h-129.925782zm290.402344 379.960937h-129.921875v-379.960937h129.921875zm0 0"/><path d="m68.664062 184.546875c-8.4375 0-15.28125 6.839844-15.28125 15.277344v41.429687c0 8.4375 6.84375 15.277344 15.28125 15.277344s15.277344-6.839844 15.277344-15.277344v-41.429687c0-8.4375-6.839844-15.277344-15.277344-15.277344zm0 0"/><path d="m282.855469 184.546875c-8.4375 0-15.277344 6.839844-15.277344 15.277344v41.429687c0 8.4375 6.839844 15.277344 15.277344 15.277344s15.277343-6.839844 15.277343-15.277344v-41.429687c0-8.4375-6.839843-15.277344-15.277343-15.277344zm0 0"/><path d="m389.625 256.53125c8.4375 0 15.277344-6.839844 15.277344-15.277344v-41.429687c0-8.4375-6.839844-15.277344-15.277344-15.277344s-15.277344 6.839844-15.277344 15.277344v41.429687c0 8.4375 6.839844 15.277344 15.277344 15.277344zm0 0"/></svg>