<svg width="28" height="28" viewBox="0 0 28 28" fill="none" xmlns="http://www.w3.org/2000/svg"><path d="M14 18.6667L14 25.6667" stroke="#1A1A1A" stroke-width="2" stroke-linecap="round"/><path d="M19.8333 24.5L15.5689 23.6471C14.5332 23.44 13.4668 23.44 12.4311 23.6471L8.16667 24.5" stroke="#1A1A1A" stroke-width="2" stroke-linecap="round"/><path d="M5.83334 14L6.52604 16.375C6.72653 17.0624 7.30407 17.5735 8.01074 17.6888V17.6888C11.9773 18.3364 16.0227 18.3364 19.9893 17.6888V17.6888C20.6959 17.5735 21.2735 17.0624 21.474 16.375L22.1667 14" stroke="#1A1A1A" stroke-width="2" stroke-linecap="round" stroke-linejoin="round"/><path d="M8.17705 3.24971C8.12847 2.66669 8.58856 2.16667 9.1736 2.16667H18.8264C19.4114 2.16667 19.8715 2.66669 19.8229 3.24971L18.915 14.1449C18.9057 14.2567 18.8235 14.3488 18.7135 14.3708C15.602 14.9931 12.398 14.9931 9.28647 14.3708C9.17647 14.3488 9.0943 14.2567 9.08499 14.1449L8.17705 3.24971Z" stroke="#1A1A1A" stroke-width="2"/><path d="M22.1667 14H23.3333" stroke="#1A1A1A" stroke-width="2" stroke-linecap="round"/><path d="M4.66666 14H5.83333" stroke="#1A1A1A" stroke-width="2" stroke-linecap="round"/></svg>